<?xml version="1.0" standalone="no"?><!DOCTYPE svg PUBLIC "-//W3C//DTD SVG 1.1//EN" "http://www.w3.org/Graphics/SVG/1.1/DTD/svg11.dtd"><svg t="1655448967900" class="icon" viewBox="0 0 1024 1024" version="1.1" xmlns="http://www.w3.org/2000/svg" p-id="5671" xmlns:xlink="http://www.w3.org/1999/xlink" width="200" height="200"><defs><style type="text/css"></style></defs><path d="M571.778066 506.372069c-5.540533-17.089175-17.904026-33.933214-70.376805-41.382632-10.257137-1.461738-19.604091-2.201687-27.793458-2.201687-30.090476 0-47.023036 9.038265-58.95981 36.868039 8.554801-0.224708 17.202664-0.844358 25.91862-1.981518 12.424777-1.611544 23.823613 7.142998 25.441966 19.572315 1.620623 12.431586-7.140728 23.821343-19.572314 25.441966a294.494899 294.494899 0 0 1-38.032437 2.487679c-2.238003 0-4.460118-0.074903-6.686772-0.124838-3.583983 17.692936-6.92283 38.874525-10.502273 64.162146-9.937098 69.757154-7.131649 110.47701 9.097279 132.05581a48.645929 48.645929 0 0 0 6.169262 6.729899c0.660506 0.503891 1.280156 1.048638 1.872569 1.616083 11.04929 9.138135 27.273679 15.023675 50.025955 18.224065 8.286967 1.164397 15.972443 1.75454 22.843068 1.75454 2.385539 0 4.716603-0.065824 6.993192-0.199741a22.670564 22.670564 0 0 1 11.058369-1.343709c33.336261-6.487032 53.936786-35.966937 67.793795-133.842128 8.250651-57.92479 13.414401-100.993869 4.709794-127.836289z" fill="#F19C7D" p-id="5672"></path><path d="M524.505354 365.373324c47.642686 0 86.401452-38.770115 86.401452-86.42415 0-47.629067-38.758766-86.381024-86.401452-86.381024-47.647225 0-86.410531 38.749687-86.410531 86.381024 0 47.656305 38.763306 86.42415 86.410531 86.42415z" fill="#FFD5A1" p-id="5673"></path><path d="M816.832612 385.179426c-11.907267-3.931259-24.740604 2.521726-28.676402 14.424453-23.419592 70.819411-89.143347 110.865143-169.992917 105.068124-0.885214-4.23768-1.924774-8.355061-3.204929-12.302208-17.397865-53.657603-69.498399-66.976673-107.165402-72.324276-12.531456-1.786317-23.714663-2.653373-34.187429-2.653373-45.445539 0-76.791203 17.620304-95.821039 53.868693-3.983464 7.585605-7.404023 15.883922-10.42964 24.897219-31.275301-5.656292-59.643014-17.845012-82.318118-35.973746-31.815509-25.437426-50.759094-61.02531-54.846968-102.94815v-115.402433c50.722778-9.923479 84.476679-53.348913 84.476678-112.34277C314.668716 58.090484 266.590233 0 207.494236 0 148.398239 0 100.319756 58.090484 100.319756 129.493229c0 58.993857 33.753901 102.417021 84.476678 112.34277v226.260767c0 12.535996 10.164076 22.697802 22.697802 22.697801 11.916346 0 21.669591-9.18807 22.604741-20.863819a196.299669 196.299669 0 0 0 26.592744 25.71434c27.807077 22.232497 62.073948 37.362851 99.566177 44.610259-3.606681 18.648514-6.71174 39.426082-9.987032 62.580109-12.086579 84.858002-6.943258 132.870662 17.761029 165.721191 0.569715 0.758107 1.180286 1.477627 1.770429 2.217575-20.396245 38.372904-60.29671 48.750339-90.414424 45.381985-39.394305-4.396564-84.615135-33.358959-93.383295-101.461444a22.690992 22.690992 0 0 0-27.809347-19.172833l-73.579464 17.661159c-12.18872 2.925747-19.699422 15.17802-16.773676 27.36901 2.925747 12.18872 15.18029 19.706231 27.36901 16.773675l50.554814-12.134245c16.914402 64.454948 65.349241 109.026621 128.587586 116.083368 5.538264 0.61738 11.019783 0.921531 16.446827 0.921531 48.01493-0.00454 90.766239-23.798645 115.100553-63.349565 13.963688 6.593711 30.517194 11.190016 50.157602 13.952339 10.520431 1.479897 20.060317 2.199417 29.166675 2.199417 1.425422 0 2.79183-0.068093 4.185475-0.10441 29.302862 48.571026 10.997085 92.398211-15.296048 116.242252-34.673162 31.445535-93.887187 41.20332-148.007826-7.867058a22.697802 22.697802 0 0 0-33.599556 3.461415l-44.517199 61.186464c-7.376786 10.136838-5.138782 24.332043 4.998056 31.708829a22.597931 22.597931 0 0 0 13.337229 4.344359 22.663755 22.663755 0 0 0 18.3716-9.344685l30.544432-41.979584c69.745805 49.052219 145.304517 32.076533 189.36776-7.880677 24.822316-22.50941 40.538274-52.522713 44.258444-84.517535 2.948444-25.380682-1.65013-50.929328-13.303182-75.236403 49.476668-22.781784 68.930954-83.024019 80.452359-164.413797 4.916344-34.530166 8.761351-64.393664 9.451364-90.280506 4.047018 0.188392 8.080417 0.320039 12.07977 0.320039 37.859933 0 73.529529-8.477629 104.745816-25.083341 44.476343-23.657919 76.620969-62.280498 92.958847-111.691343 3.940338-11.907267-2.519456-24.747413-14.419914-28.683212zM207.494236 198.589877c-38.10507 0-61.778877-26.476986-61.778877-69.096648C145.715359 83.12162 173.429375 45.395604 207.494236 45.395604s61.778877 37.726016 61.778877 84.097625c0 42.621932-23.673807 69.096648-61.778877 69.096648zM499.279017 768.057295a22.643327 22.643327 0 0 0-11.058369 1.34371c-2.278859 0.133917-4.607654 0.199741-6.993193 0.19974-6.870625 0-14.5561-0.590143-22.843067-1.75454-22.752276-3.20039-38.976665-9.08593-50.025955-18.224065-0.594682-0.567445-1.214332-1.112192-1.872569-1.616083a48.777576 48.777576 0 0 1-6.169263-6.729898c-16.226658-21.5788-19.034377-62.298656-9.097279-132.055811 3.577174-25.287621 6.91602-46.46921 10.502273-64.162146 2.226654 0.052205 4.448769 0.124838 6.686773 0.124838 12.531456 0 25.244495-0.82166 38.032436-2.487679 12.431586-1.620623 21.192937-13.01038 19.572315-25.441966-1.618353-12.429316-13.017189-21.183858-25.441966-19.572315-8.715956 1.13716-17.363818 1.75681-25.91862 1.981519 11.934504-27.829775 28.869334-36.868039 58.95981-36.86804 8.189367 0 17.538591 0.739948 27.793458 2.201687 52.472778 7.451688 64.834001 24.293457 70.376804 41.382632 8.704607 26.84242 3.540857 69.911499-4.705254 127.840829-13.859278 97.870651-34.459803 127.350556-67.798334 133.837588zM959.195495 150.990317c-4.605384-11.657591-17.781458-17.377437-29.450398-12.772053l-34.123875 13.477954 13.477955-34.126144c4.605384-11.659861-1.112192-24.842744-12.772053-29.448128-11.66894-4.612193-24.845014 1.114462-29.450398 12.772053L842.556031 162.470865a22.690992 22.690992 0 0 0 5.06161 24.386518l12.837877 12.840147a22.690992 22.690992 0 0 0 24.388788 5.061609l61.579136-24.320694c11.659861-4.603114 17.377437-17.788267 12.772053-29.448128z" fill="" p-id="5674"></path><path d="M524.505354 410.768928c72.673822 0 131.797056-59.134583 131.797056-131.819754 0-72.662473-59.125504-131.776628-131.797056-131.776627-72.678361 0-131.806135 59.114155-131.806135 131.776627 0 72.68744 59.127774 131.819753 131.806135 131.819754z m0-218.198508c47.642686 0 86.401452 38.749687 86.401452 86.381024 0 47.654035-38.758766 86.42415-86.401452 86.42415-47.647225 0-86.410531-38.770115-86.410531-86.42415 0-47.631337 38.763306-86.381024 86.410531-86.381024z" fill="" p-id="5675"></path></svg>